<svg xmlns="http://www.w3.org/2000/svg" width="256" height="128" viewBox="0 0 256 128">
  <defs>
    <style>
      .cls-1 {
        fill: #fff;
        fill-rule: evenodd;
      }
    </style>
  </defs>
  <path id="Rectangle_4_copy_3" data-name="Rectangle 4 copy 3" class="cls-1" d="M230.775,54.662L228.182,58.8c-0.4.648-.6,0.5-1.346,0.05a10.954,10.954,0,0,0-6.583-2.444,12.939,12.939,0,0,0-1.995.15v19.25c0,0.8-.15.9-1.1,0.9h-5.087c-0.748,0-1.048-.15-1.048-0.9V54.563c0-2.593.6-3.89,3.541-4.339a30.24,30.24,0,0,1,3.79-.249,20.933,20.933,0,0,1,12.219,3.541A0.749,0.749,0,0,1,230.775,54.662ZM204.143,65.634H191.376c0.149,4.239,2.643,5.486,5.984,5.486a14.988,14.988,0,0,0,5.735-1.247c0.8-.249,1-0.2,1.247.349l1.6,3.591a0.809,0.809,0,0,1-.449,1.2,17.239,17.239,0,0,1-8.827,2.244c-8.727,0-12.817-4.139-12.817-13.515,0-8.777,4.838-13.864,12.368-13.864,7.78,0,11.67,4.04,11.67,11.271C207.883,64.587,206.487,65.634,204.143,65.634Zm-7.78-9.775c-2.743,0-4.588,2.144-4.838,5.137h9.326C200.851,58.054,199.854,55.859,196.363,55.859Zm-20.2,21.395c-5.735,0-7.979-2.444-7.979-7.181V55.859h-3.491a0.756,0.756,0,0,1-.848-0.948V52.219c0-.648.05-0.8,0.8-1L168,50.45V33h-4.187a1.5,1.5,0,0,1-1.409-1H146.189a1.5,1.5,0,0,1-1.408,1H141V56.031h-1V55.707a1.47,1.47,0,0,1-.3.037h-5.514v12.74c0,1.956.953,2.558,2.908,2.558a30.779,30.779,0,0,0,3.759-.351,1.65,1.65,0,0,1,.291-0.03,0.506,0.506,0,0,1,.561.531l0.6,4.213c0.05,0.451.251,0.752-.5,1a24.128,24.128,0,0,1-6.868.853c-5.764,0-8.02-2.458-8.02-7.223v-14.3h-3.509a0.76,0.76,0,0,1-.852-0.953V52.082c0-.652.05-0.8,0.8-1l3.709-.853,0.351-4.715a1.22,1.22,0,0,1,1.153-1.254l4.612-1.5a1.269,1.269,0,0,1,.306-0.041c0.428,0,.7.287,0.7,0.944v6.721H139.7a1.4,1.4,0,0,1,.3.038V33h-7.812a1.5,1.5,0,1,1,0-3H140V21h1v9h3.781a1.5,1.5,0,0,1,1.408,1H162.4a1.5,1.5,0,0,1,1.409-1H168V21h1v9h7.375a1.5,1.5,0,0,1,1.408,1h0.092v1h-0.092a1.5,1.5,0,0,1-1.408,1H169V44.834a1.811,1.811,0,0,1,.831-0.4l4.588-1.5c0.6-.15,1,0.1,1,0.9v6.683H180.9c0.748,0,.8.3,0.8,0.848v3.541c0,0.648,0,.948-0.8.948h-5.486V68.527c0,1.945.948,2.543,2.893,2.543a30.665,30.665,0,0,0,3.74-.349c0.549-.1.8,0.05,0.848,0.5l0.6,4.189c0.05,0.449.25,0.748-.5,1A24.022,24.022,0,0,1,176.164,77.254ZM139.456,51.422H133.14V43.866l-4.246,1.385-0.027.009-0.028.007a1.689,1.689,0,0,0-.353.122,0.951,0.951,0,0,0-.026.187L128.108,50.3l-0.057.768-0.751.172-3.691.848-0.01,0v2.6h4.361v15.34c0,4.388,2.021,6.178,6.976,6.178a23.057,23.057,0,0,0,6.325-.737l-0.53-3.713a31.454,31.454,0,0,1-3.639.32c-0.978,0-3.952,0-3.952-3.6V54.7h6.316V51.422ZM122.813,95v1h-0.124a1.5,1.5,0,0,1-1.408,1H114v8.031h-1V97h-4.281a1.5,1.5,0,0,1-1.408-1H95.1a1.5,1.5,0,0,1-1.408,1H90v8.031H89V97H81.125a1.5,1.5,0,0,1,0-3H89V76.185a3.476,3.476,0,0,1-.606.32,16.634,16.634,0,0,1-5.236.748c-3.99,0-6.284-1.5-6.284-6.932V41.2c0-.948.349-0.948,1.1-0.948h5.087c0.748,0,1.1.15,1.1,0.9V68.826c0,1.646.3,2.294,1.845,2.294,0.549,0,1.4-.1,1.845-0.15,0.6-.05.8,0.05,0.848,0.6L89,74.161V71h1V94h3.688A1.5,1.5,0,0,1,95.1,95h12.215a1.5,1.5,0,0,1,1.408-1H113V76.394a1.134,1.134,0,0,1-.12-0.586V51.28c0-.752.3-0.9,1.052-0.9h5.113c0.953,0,1.1.151,1.1,0.9V75.807c0,0.752-.15.9-1.1,0.9H114V94h7.281a1.5,1.5,0,0,1,1.408,1h0.124Zm-3.768-19.335H119.1V51.422H114V75.665h5.045Zm-2.456-28.047a4.109,4.109,0,0,1-4.161-4.113,4.186,4.186,0,0,1,8.372,0A4.09,4.09,0,0,1,116.589,47.618Zm0-7.231a3.121,3.121,0,0,0-3.116,3.118,3.142,3.142,0,0,0,6.282,0A3.109,3.109,0,0,0,116.589,40.387ZM61.811,77.154a24.932,24.932,0,0,1-5.635-.6v9.475c0,0.748-.1.848-1.047,0.848H49.942c-0.748,0-1.047-.1-1.047-0.848V53.515a1.447,1.447,0,0,1,1-1.546,28.266,28.266,0,0,1,11.021-1.995c9.426,0,12.617,6.034,12.617,13.615C73.531,71.02,69.84,77.154,61.811,77.154ZM59.966,56.208a15.45,15.45,0,0,0-3.79.549V70.372a16.224,16.224,0,0,0,4.139.549c3.341,0,5.635-2.045,5.635-7.481C65.95,57.954,63.756,56.208,59.966,56.208ZM37.622,60.547c4.788,1.845,8.727,3.591,8.727,8.678,0,5.386-4.189,8.029-10.373,8.029-3.441,0-7.58-.7-10.523-2.444a0.8,0.8,0,0,1-.3-1.3L26.6,70.073c0.349-.748.6-0.9,1.346-0.549a24.163,24.163,0,0,0,7.73,1.8c2.394,0,3.242-.948,3.242-2.194,0-1.346-1.2-2.095-4.538-3.341-5.286-1.995-8.229-3.99-8.229-8.079,0-4.339,3.142-7.83,9.725-7.83a22.209,22.209,0,0,1,8.777,1.7c0.748,0.349.7,0.6,0.449,1.4l-1.247,3.192c-0.249.748-.5,0.748-1.247,0.5a21.533,21.533,0,0,0-6.583-1.147c-1.8,0-2.544,1.047-2.544,1.9C33.483,58.752,34.58,59.4,37.622,60.547Z"/>
</svg>
