<svg xmlns="http://www.w3.org/2000/svg" width="32" height="32" viewBox="0 0 32 32">
  <defs>
    <style>
      .cls-1 {
        fill: #fff;
        fill-rule: evenodd;
      }
    </style>
  </defs>
  <path id="Shape_1_copy_6" data-name="Shape 1 copy 6" class="cls-1" d="M27.5,14.233H25.081v3.534H27.5a0.5,0.5,0,0,1,0,1H25.081V21.6a0.5,0.5,0,0,1-1,0V10.4a0.5,0.5,0,0,1,1,0v2.829H27.5A0.5,0.5,0,1,1,27.5,14.233Zm-4.821,8.946H9.321a0.5,0.5,0,0,1-.5-0.5V9.321a0.5,0.5,0,0,1,.5-0.5H22.679a0.5,0.5,0,0,1,.5.5V22.679A0.5,0.5,0,0,1,22.679,23.179Zm-0.5-13.359H9.821V22.179H22.179V9.821ZM21.6,7.919H10.4a0.5,0.5,0,0,1,0-1h2.829V4.5a0.5,0.5,0,0,1,1,0V6.919h3.534V4.5a0.5,0.5,0,0,1,1,0V6.919H21.6A0.5,0.5,0,0,1,21.6,7.919ZM7.419,22.1a0.5,0.5,0,0,1-.5-0.5V18.767H4.5a0.5,0.5,0,0,1,0-1h2.42V14.233H4.5a0.5,0.5,0,1,1,0-1h2.42V10.4a0.5,0.5,0,0,1,1,0V21.6A0.5,0.5,0,0,1,7.419,22.1ZM10.4,24.081H21.6a0.5,0.5,0,0,1,0,1H18.767V27.5a0.5,0.5,0,1,1-1,0V25.081H14.233V27.5a0.5,0.5,0,1,1-1,0V25.081H10.4A0.5,0.5,0,0,1,10.4,24.081Z"/>
</svg>
